<mxfile host="app.diagrams.net" agent="Mozilla/5.0 (X11; Linux x86_64) AppleWebKit/537.36 (KHTML, like Gecko) Chrome/131.0.0.0 Safari/537.36" version="25.0.3">
  <diagram name="Page-1" id="RwCdulTUZQlI02-5xfNd">
    <mxGraphModel dx="2234" dy="754" grid="1" gridSize="10" guides="1" tooltips="1" connect="1" arrows="1" fold="1" page="1" pageScale="1" pageWidth="850" pageHeight="1100" math="0" shadow="0">
      <root>
        <mxCell id="0" />
        <mxCell id="1" parent="0" />
        <mxCell id="ehxNiageHxBLJbwBgZLJ-1" value="employees" style="whiteSpace=wrap;html=1;align=center;" parent="1" vertex="1">
          <mxGeometry x="56" y="189" width="110" height="48" as="geometry" />
        </mxCell>
        <mxCell id="ehxNiageHxBLJbwBgZLJ-2" value="floors" style="whiteSpace=wrap;html=1;align=center;" parent="1" vertex="1">
          <mxGeometry x="595" y="109" width="100" height="51" as="geometry" />
        </mxCell>
        <mxCell id="ehxNiageHxBLJbwBgZLJ-3" value="users" style="whiteSpace=wrap;html=1;align=center;" parent="1" vertex="1">
          <mxGeometry x="719" y="330" width="100" height="40" as="geometry" />
        </mxCell>
        <mxCell id="ehxNiageHxBLJbwBgZLJ-4" value="books" style="whiteSpace=wrap;html=1;align=center;" parent="1" vertex="1">
          <mxGeometry x="750" y="560" width="100" height="40" as="geometry" />
        </mxCell>
        <mxCell id="ehxNiageHxBLJbwBgZLJ-5" value="authers" style="whiteSpace=wrap;html=1;align=center;" parent="1" vertex="1">
          <mxGeometry x="371" y="671" width="100" height="40" as="geometry" />
        </mxCell>
        <mxCell id="ehxNiageHxBLJbwBgZLJ-6" value="publishers" style="whiteSpace=wrap;html=1;align=center;" parent="1" vertex="1">
          <mxGeometry x="60" y="529" width="98" height="40" as="geometry" />
        </mxCell>
        <mxCell id="ehxNiageHxBLJbwBgZLJ-8" value="Emp_Id" style="ellipse;whiteSpace=wrap;html=1;align=center;fontStyle=4;" parent="1" vertex="1">
          <mxGeometry x="-100" y="203" width="100" height="40" as="geometry" />
        </mxCell>
        <mxCell id="ehxNiageHxBLJbwBgZLJ-9" value="Name" style="ellipse;whiteSpace=wrap;html=1;align=center;" parent="1" vertex="1">
          <mxGeometry x="-110" y="153" width="100" height="40" as="geometry" />
        </mxCell>
        <mxCell id="ehxNiageHxBLJbwBgZLJ-10" value="Salary" style="ellipse;whiteSpace=wrap;html=1;align=center;" parent="1" vertex="1">
          <mxGeometry x="26" y="40" width="100" height="40" as="geometry" />
        </mxCell>
        <mxCell id="ehxNiageHxBLJbwBgZLJ-11" value="Email" style="ellipse;whiteSpace=wrap;html=1;align=center;" parent="1" vertex="1">
          <mxGeometry x="-50" y="109" width="100" height="40" as="geometry" />
        </mxCell>
        <mxCell id="ehxNiageHxBLJbwBgZLJ-12" value="Bouns" style="ellipse;whiteSpace=wrap;html=1;align=center;" parent="1" vertex="1">
          <mxGeometry x="198" y="80" width="100" height="40" as="geometry" />
        </mxCell>
        <mxCell id="ehxNiageHxBLJbwBgZLJ-13" value="Address" style="ellipse;whiteSpace=wrap;html=1;align=center;" parent="1" vertex="1">
          <mxGeometry x="186" y="139" width="100" height="40" as="geometry" />
        </mxCell>
        <mxCell id="ehxNiageHxBLJbwBgZLJ-14" value="Phone Number." style="ellipse;whiteSpace=wrap;html=1;align=center;" parent="1" vertex="1">
          <mxGeometry x="220" y="222" width="100" height="40" as="geometry" />
        </mxCell>
        <mxCell id="ehxNiageHxBLJbwBgZLJ-15" value="DateOfBirth," style="ellipse;whiteSpace=wrap;html=1;align=center;" parent="1" vertex="1">
          <mxGeometry x="90" y="97" width="100" height="40" as="geometry" />
        </mxCell>
        <mxCell id="ehxNiageHxBLJbwBgZLJ-16" value="Fname" style="ellipse;whiteSpace=wrap;html=1;align=center;" parent="1" vertex="1">
          <mxGeometry x="-220" y="120" width="100" height="40" as="geometry" />
        </mxCell>
        <mxCell id="ehxNiageHxBLJbwBgZLJ-17" value="Lname," style="ellipse;whiteSpace=wrap;html=1;align=center;" parent="1" vertex="1">
          <mxGeometry x="-240" y="193" width="100" height="40" as="geometry" />
        </mxCell>
        <mxCell id="ehxNiageHxBLJbwBgZLJ-23" value="" style="endArrow=none;html=1;rounded=0;exitX=1;exitY=0.5;exitDx=0;exitDy=0;entryX=0.164;entryY=1.025;entryDx=0;entryDy=0;entryPerimeter=0;" parent="1" source="ehxNiageHxBLJbwBgZLJ-8" target="ehxNiageHxBLJbwBgZLJ-1" edge="1">
          <mxGeometry relative="1" as="geometry">
            <mxPoint x="146" y="407" as="sourcePoint" />
            <mxPoint x="306" y="407" as="targetPoint" />
          </mxGeometry>
        </mxCell>
        <mxCell id="ehxNiageHxBLJbwBgZLJ-24" value="" style="endArrow=none;html=1;rounded=0;exitX=1;exitY=0.5;exitDx=0;exitDy=0;entryX=0;entryY=0.5;entryDx=0;entryDy=0;" parent="1" source="ehxNiageHxBLJbwBgZLJ-9" target="ehxNiageHxBLJbwBgZLJ-1" edge="1">
          <mxGeometry relative="1" as="geometry">
            <mxPoint x="8" y="257" as="sourcePoint" />
            <mxPoint x="56" y="218" as="targetPoint" />
          </mxGeometry>
        </mxCell>
        <mxCell id="ehxNiageHxBLJbwBgZLJ-25" value="" style="endArrow=none;html=1;rounded=0;exitX=0.94;exitY=0.8;exitDx=0;exitDy=0;entryX=0;entryY=0;entryDx=0;entryDy=0;exitPerimeter=0;" parent="1" source="ehxNiageHxBLJbwBgZLJ-11" target="ehxNiageHxBLJbwBgZLJ-1" edge="1">
          <mxGeometry relative="1" as="geometry">
            <mxPoint x="10" y="172" as="sourcePoint" />
            <mxPoint x="65" y="167" as="targetPoint" />
          </mxGeometry>
        </mxCell>
        <mxCell id="ehxNiageHxBLJbwBgZLJ-26" value="" style="endArrow=none;html=1;rounded=0;exitX=0.5;exitY=1;exitDx=0;exitDy=0;entryX=0.136;entryY=-0.025;entryDx=0;entryDy=0;entryPerimeter=0;" parent="1" source="ehxNiageHxBLJbwBgZLJ-10" target="ehxNiageHxBLJbwBgZLJ-1" edge="1">
          <mxGeometry relative="1" as="geometry">
            <mxPoint x="19" y="189" as="sourcePoint" />
            <mxPoint x="66" y="207" as="targetPoint" />
          </mxGeometry>
        </mxCell>
        <mxCell id="ehxNiageHxBLJbwBgZLJ-27" value="" style="endArrow=none;html=1;rounded=0;exitX=0.5;exitY=1;exitDx=0;exitDy=0;entryX=0.5;entryY=0;entryDx=0;entryDy=0;" parent="1" source="ehxNiageHxBLJbwBgZLJ-15" target="ehxNiageHxBLJbwBgZLJ-1" edge="1">
          <mxGeometry relative="1" as="geometry">
            <mxPoint x="100.5" y="102" as="sourcePoint" />
            <mxPoint x="121.5" y="167" as="targetPoint" />
          </mxGeometry>
        </mxCell>
        <mxCell id="ehxNiageHxBLJbwBgZLJ-28" value="" style="endArrow=none;html=1;rounded=0;exitX=0;exitY=1;exitDx=0;exitDy=0;entryX=0.7;entryY=-0.05;entryDx=0;entryDy=0;entryPerimeter=0;" parent="1" source="ehxNiageHxBLJbwBgZLJ-12" target="ehxNiageHxBLJbwBgZLJ-1" edge="1">
          <mxGeometry relative="1" as="geometry">
            <mxPoint x="121" y="127" as="sourcePoint" />
            <mxPoint x="121" y="207" as="targetPoint" />
          </mxGeometry>
        </mxCell>
        <mxCell id="ehxNiageHxBLJbwBgZLJ-29" value="" style="endArrow=none;html=1;rounded=0;exitX=0.06;exitY=0.725;exitDx=0;exitDy=0;entryX=1;entryY=0;entryDx=0;entryDy=0;exitPerimeter=0;" parent="1" source="ehxNiageHxBLJbwBgZLJ-13" target="ehxNiageHxBLJbwBgZLJ-1" edge="1">
          <mxGeometry relative="1" as="geometry">
            <mxPoint x="181" y="141" as="sourcePoint" />
            <mxPoint x="143" y="205" as="targetPoint" />
          </mxGeometry>
        </mxCell>
        <mxCell id="ehxNiageHxBLJbwBgZLJ-30" value="" style="endArrow=none;html=1;rounded=0;exitX=0;exitY=0.5;exitDx=0;exitDy=0;entryX=1;entryY=0.5;entryDx=0;entryDy=0;entryPerimeter=0;" parent="1" source="ehxNiageHxBLJbwBgZLJ-14" target="ehxNiageHxBLJbwBgZLJ-1" edge="1">
          <mxGeometry relative="1" as="geometry">
            <mxPoint x="206" y="227" as="sourcePoint" />
            <mxPoint x="176" y="217" as="targetPoint" />
          </mxGeometry>
        </mxCell>
        <mxCell id="ehxNiageHxBLJbwBgZLJ-31" value="" style="endArrow=none;html=1;rounded=0;exitX=1;exitY=0.5;exitDx=0;exitDy=0;entryX=0.01;entryY=0.3;entryDx=0;entryDy=0;entryPerimeter=0;" parent="1" source="ehxNiageHxBLJbwBgZLJ-16" target="ehxNiageHxBLJbwBgZLJ-9" edge="1">
          <mxGeometry relative="1" as="geometry">
            <mxPoint x="-144" y="197" as="sourcePoint" />
            <mxPoint x="-97" y="215" as="targetPoint" />
          </mxGeometry>
        </mxCell>
        <mxCell id="ehxNiageHxBLJbwBgZLJ-32" value="" style="endArrow=none;html=1;rounded=0;exitX=1;exitY=0.5;exitDx=0;exitDy=0;entryX=0.09;entryY=0.85;entryDx=0;entryDy=0;entryPerimeter=0;" parent="1" source="ehxNiageHxBLJbwBgZLJ-17" target="ehxNiageHxBLJbwBgZLJ-9" edge="1">
          <mxGeometry relative="1" as="geometry">
            <mxPoint x="-144" y="257" as="sourcePoint" />
            <mxPoint x="-97" y="275" as="targetPoint" />
          </mxGeometry>
        </mxCell>
        <mxCell id="ehxNiageHxBLJbwBgZLJ-36" value="floor_number" style="ellipse;whiteSpace=wrap;html=1;align=center;fontStyle=4;" parent="1" vertex="1">
          <mxGeometry x="495" y="40" width="100" height="40" as="geometry" />
        </mxCell>
        <mxCell id="ehxNiageHxBLJbwBgZLJ-39" value="" style="endArrow=none;html=1;rounded=0;exitX=1;exitY=1;exitDx=0;exitDy=0;entryX=0.25;entryY=0;entryDx=0;entryDy=0;" parent="1" source="ehxNiageHxBLJbwBgZLJ-36" target="ehxNiageHxBLJbwBgZLJ-2" edge="1">
          <mxGeometry relative="1" as="geometry">
            <mxPoint x="258" y="149" as="sourcePoint" />
            <mxPoint x="220" y="170" as="targetPoint" />
            <Array as="points" />
          </mxGeometry>
        </mxCell>
        <mxCell id="ehxNiageHxBLJbwBgZLJ-42" value="" style="endArrow=none;html=1;rounded=0;exitX=0.327;exitY=1.05;exitDx=0;exitDy=0;entryX=0.5;entryY=0;entryDx=0;entryDy=0;exitPerimeter=0;" parent="1" target="ehxNiageHxBLJbwBgZLJ-2" edge="1">
          <mxGeometry relative="1" as="geometry">
            <mxPoint x="699.0500000000002" y="82" as="sourcePoint" />
            <mxPoint x="635" y="120" as="targetPoint" />
            <Array as="points" />
          </mxGeometry>
        </mxCell>
        <mxCell id="ehxNiageHxBLJbwBgZLJ-43" value="SSN" style="ellipse;whiteSpace=wrap;html=1;align=center;fontStyle=4;" parent="1" vertex="1">
          <mxGeometry x="799" y="250" width="100" height="40" as="geometry" />
        </mxCell>
        <mxCell id="ehxNiageHxBLJbwBgZLJ-44" value="name" style="ellipse;whiteSpace=wrap;html=1;align=center;" parent="1" vertex="1">
          <mxGeometry x="859" y="310" width="150" height="40" as="geometry" />
        </mxCell>
        <mxCell id="ehxNiageHxBLJbwBgZLJ-45" value="email" style="ellipse;whiteSpace=wrap;html=1;align=center;" parent="1" vertex="1">
          <mxGeometry x="849" y="380" width="150" height="40" as="geometry" />
        </mxCell>
        <mxCell id="ehxNiageHxBLJbwBgZLJ-49" value="phones" style="ellipse;shape=doubleEllipse;margin=3;whiteSpace=wrap;html=1;align=center;" parent="1" vertex="1">
          <mxGeometry x="749" y="428" width="100" height="40" as="geometry" />
        </mxCell>
        <mxCell id="ehxNiageHxBLJbwBgZLJ-52" value="id" style="ellipse;whiteSpace=wrap;html=1;align=center;fontStyle=4;" parent="1" vertex="1">
          <mxGeometry x="913" y="511" width="100" height="40" as="geometry" />
        </mxCell>
        <mxCell id="ehxNiageHxBLJbwBgZLJ-53" value="name" style="ellipse;whiteSpace=wrap;html=1;align=center;" parent="1" vertex="1">
          <mxGeometry x="888" y="569" width="150" height="40" as="geometry" />
        </mxCell>
        <mxCell id="ehxNiageHxBLJbwBgZLJ-54" value="" style="endArrow=none;html=1;rounded=0;exitX=0.26;exitY=1.05;exitDx=0;exitDy=0;exitPerimeter=0;entryX=0.75;entryY=0;entryDx=0;entryDy=0;" parent="1" source="ehxNiageHxBLJbwBgZLJ-43" target="ehxNiageHxBLJbwBgZLJ-3" edge="1">
          <mxGeometry relative="1" as="geometry">
            <mxPoint x="819" y="300" as="sourcePoint" />
            <mxPoint x="779" y="330" as="targetPoint" />
            <Array as="points" />
          </mxGeometry>
        </mxCell>
        <mxCell id="ehxNiageHxBLJbwBgZLJ-58" value="" style="endArrow=none;html=1;rounded=0;exitX=1;exitY=1;exitDx=0;exitDy=0;entryX=0;entryY=0.5;entryDx=0;entryDy=0;" parent="1" source="ehxNiageHxBLJbwBgZLJ-4" target="ehxNiageHxBLJbwBgZLJ-53" edge="1">
          <mxGeometry relative="1" as="geometry">
            <mxPoint x="715" y="600" as="sourcePoint" />
            <mxPoint x="684" y="638" as="targetPoint" />
            <Array as="points" />
          </mxGeometry>
        </mxCell>
        <mxCell id="ehxNiageHxBLJbwBgZLJ-59" value="" style="endArrow=none;html=1;rounded=0;exitX=0;exitY=0.5;exitDx=0;exitDy=0;entryX=1;entryY=0.5;entryDx=0;entryDy=0;" parent="1" source="ehxNiageHxBLJbwBgZLJ-52" target="ehxNiageHxBLJbwBgZLJ-4" edge="1">
          <mxGeometry relative="1" as="geometry">
            <mxPoint x="741" y="370" as="sourcePoint" />
            <mxPoint x="710" y="408" as="targetPoint" />
            <Array as="points" />
          </mxGeometry>
        </mxCell>
        <mxCell id="ehxNiageHxBLJbwBgZLJ-60" value="" style="endArrow=none;html=1;rounded=0;exitX=0.5;exitY=1;exitDx=0;exitDy=0;entryX=0.5;entryY=0;entryDx=0;entryDy=0;" parent="1" source="ehxNiageHxBLJbwBgZLJ-3" target="ehxNiageHxBLJbwBgZLJ-49" edge="1">
          <mxGeometry relative="1" as="geometry">
            <mxPoint x="610" y="370" as="sourcePoint" />
            <mxPoint x="579" y="408" as="targetPoint" />
            <Array as="points" />
          </mxGeometry>
        </mxCell>
        <mxCell id="ehxNiageHxBLJbwBgZLJ-61" value="" style="endArrow=none;html=1;rounded=0;exitX=0;exitY=0.5;exitDx=0;exitDy=0;entryX=0.89;entryY=1.1;entryDx=0;entryDy=0;entryPerimeter=0;" parent="1" source="ehxNiageHxBLJbwBgZLJ-45" target="ehxNiageHxBLJbwBgZLJ-3" edge="1">
          <mxGeometry relative="1" as="geometry">
            <mxPoint x="620" y="380" as="sourcePoint" />
            <mxPoint x="589" y="418" as="targetPoint" />
            <Array as="points" />
          </mxGeometry>
        </mxCell>
        <mxCell id="ehxNiageHxBLJbwBgZLJ-62" value="" style="endArrow=none;html=1;rounded=0;exitX=0.047;exitY=0.75;exitDx=0;exitDy=0;exitPerimeter=0;entryX=1;entryY=0.5;entryDx=0;entryDy=0;" parent="1" source="ehxNiageHxBLJbwBgZLJ-44" target="ehxNiageHxBLJbwBgZLJ-3" edge="1">
          <mxGeometry relative="1" as="geometry">
            <mxPoint x="630" y="390" as="sourcePoint" />
            <mxPoint x="599" y="428" as="targetPoint" />
            <Array as="points" />
          </mxGeometry>
        </mxCell>
        <mxCell id="ehxNiageHxBLJbwBgZLJ-63" value="id" style="ellipse;whiteSpace=wrap;html=1;align=center;fontStyle=4;" parent="1" vertex="1">
          <mxGeometry x="470" y="753" width="100" height="40" as="geometry" />
        </mxCell>
        <mxCell id="ehxNiageHxBLJbwBgZLJ-64" value="name" style="ellipse;whiteSpace=wrap;html=1;align=center;" parent="1" vertex="1">
          <mxGeometry x="286" y="763" width="150" height="40" as="geometry" />
        </mxCell>
        <mxCell id="ehxNiageHxBLJbwBgZLJ-65" value="" style="endArrow=none;html=1;rounded=0;exitX=0;exitY=0;exitDx=0;exitDy=0;entryX=0.75;entryY=1;entryDx=0;entryDy=0;" parent="1" source="ehxNiageHxBLJbwBgZLJ-63" target="ehxNiageHxBLJbwBgZLJ-5" edge="1">
          <mxGeometry relative="1" as="geometry">
            <mxPoint x="312" y="535" as="sourcePoint" />
            <mxPoint x="431" y="745" as="targetPoint" />
            <Array as="points" />
          </mxGeometry>
        </mxCell>
        <mxCell id="ehxNiageHxBLJbwBgZLJ-66" value="" style="endArrow=none;html=1;rounded=0;exitX=0.25;exitY=1;exitDx=0;exitDy=0;entryX=0.5;entryY=0;entryDx=0;entryDy=0;" parent="1" source="ehxNiageHxBLJbwBgZLJ-5" target="ehxNiageHxBLJbwBgZLJ-64" edge="1">
          <mxGeometry relative="1" as="geometry">
            <mxPoint x="381" y="765" as="sourcePoint" />
            <mxPoint x="255" y="803" as="targetPoint" />
            <Array as="points" />
          </mxGeometry>
        </mxCell>
        <mxCell id="ehxNiageHxBLJbwBgZLJ-67" value="name" style="ellipse;whiteSpace=wrap;html=1;align=center;" parent="1" vertex="1">
          <mxGeometry x="-50" y="619" width="148" height="40" as="geometry" />
        </mxCell>
        <mxCell id="ehxNiageHxBLJbwBgZLJ-68" value="" style="endArrow=none;html=1;rounded=0;exitX=0.39;exitY=0.075;exitDx=0;exitDy=0;entryX=0.75;entryY=1;entryDx=0;entryDy=0;exitPerimeter=0;" parent="1" target="ehxNiageHxBLJbwBgZLJ-6" edge="1">
          <mxGeometry relative="1" as="geometry">
            <mxPoint x="169" y="622" as="sourcePoint" />
            <mxPoint x="124" y="565" as="targetPoint" />
            <Array as="points" />
          </mxGeometry>
        </mxCell>
        <mxCell id="ehxNiageHxBLJbwBgZLJ-69" value="" style="endArrow=none;html=1;rounded=0;entryX=0.5;entryY=0;entryDx=0;entryDy=0;exitX=0.25;exitY=1;exitDx=0;exitDy=0;" parent="1" target="ehxNiageHxBLJbwBgZLJ-67" edge="1">
          <mxGeometry relative="1" as="geometry">
            <mxPoint x="85" y="567" as="sourcePoint" />
            <mxPoint x="-61" y="659" as="targetPoint" />
            <Array as="points" />
          </mxGeometry>
        </mxCell>
        <mxCell id="ehxNiageHxBLJbwBgZLJ-72" value="id" style="ellipse;whiteSpace=wrap;html=1;align=center;fontStyle=4;" parent="1" vertex="1">
          <mxGeometry x="131" y="619" width="98" height="40" as="geometry" />
        </mxCell>
        <mxCell id="ehxNiageHxBLJbwBgZLJ-74" value="supervise" style="shape=rhombus;perimeter=rhombusPerimeter;whiteSpace=wrap;html=1;align=center;" parent="1" vertex="1">
          <mxGeometry x="-100" y="327" width="120" height="60" as="geometry" />
        </mxCell>
        <mxCell id="ehxNiageHxBLJbwBgZLJ-75" value="" style="shape=link;html=1;rounded=0;exitX=0.485;exitY=0;exitDx=0;exitDy=0;entryX=0.609;entryY=1.025;entryDx=0;entryDy=0;entryPerimeter=0;exitPerimeter=0;" parent="1" source="ehxNiageHxBLJbwBgZLJ-80" target="ehxNiageHxBLJbwBgZLJ-1" edge="1">
          <mxGeometry relative="1" as="geometry">
            <mxPoint x="310" y="309" as="sourcePoint" />
            <mxPoint x="100" y="309" as="targetPoint" />
          </mxGeometry>
        </mxCell>
        <mxCell id="ehxNiageHxBLJbwBgZLJ-76" value="N" style="resizable=0;html=1;whiteSpace=wrap;align=right;verticalAlign=bottom;" parent="ehxNiageHxBLJbwBgZLJ-75" connectable="0" vertex="1">
          <mxGeometry x="1" relative="1" as="geometry">
            <mxPoint x="10" y="22" as="offset" />
          </mxGeometry>
        </mxCell>
        <mxCell id="ehxNiageHxBLJbwBgZLJ-77" value="" style="endArrow=none;html=1;rounded=0;entryX=0.25;entryY=1;entryDx=0;entryDy=0;exitX=0.742;exitY=0.033;exitDx=0;exitDy=0;exitPerimeter=0;" parent="1" source="ehxNiageHxBLJbwBgZLJ-79" target="ehxNiageHxBLJbwBgZLJ-1" edge="1">
          <mxGeometry relative="1" as="geometry">
            <mxPoint x="310" y="309" as="sourcePoint" />
            <mxPoint x="470" y="309" as="targetPoint" />
          </mxGeometry>
        </mxCell>
        <mxCell id="ehxNiageHxBLJbwBgZLJ-78" value="1" style="resizable=0;html=1;whiteSpace=wrap;align=right;verticalAlign=bottom;" parent="ehxNiageHxBLJbwBgZLJ-77" connectable="0" vertex="1">
          <mxGeometry x="1" relative="1" as="geometry">
            <mxPoint x="8" y="20" as="offset" />
          </mxGeometry>
        </mxCell>
        <mxCell id="ehxNiageHxBLJbwBgZLJ-81" value="number_of_blocks" style="ellipse;shape=doubleEllipse;margin=3;whiteSpace=wrap;html=1;align=center;" parent="1" vertex="1">
          <mxGeometry x="644" y="40" width="129" height="40" as="geometry" />
        </mxCell>
        <mxCell id="ehxNiageHxBLJbwBgZLJ-82" value="manage" style="shape=rhombus;perimeter=rhombusPerimeter;whiteSpace=wrap;html=1;align=center;" parent="1" vertex="1">
          <mxGeometry x="371" y="160" width="120" height="60" as="geometry" />
        </mxCell>
        <mxCell id="ehxNiageHxBLJbwBgZLJ-83" value="" style="endArrow=none;html=1;rounded=0;exitX=0;exitY=0.5;exitDx=0;exitDy=0;entryX=1;entryY=0.25;entryDx=0;entryDy=0;" parent="1" source="ehxNiageHxBLJbwBgZLJ-82" target="ehxNiageHxBLJbwBgZLJ-1" edge="1">
          <mxGeometry relative="1" as="geometry">
            <mxPoint x="371" y="269" as="sourcePoint" />
            <mxPoint x="333" y="325" as="targetPoint" />
          </mxGeometry>
        </mxCell>
        <mxCell id="ehxNiageHxBLJbwBgZLJ-84" value="" style="shape=link;html=1;rounded=0;exitX=1;exitY=0.5;exitDx=0;exitDy=0;entryX=0.5;entryY=1;entryDx=0;entryDy=0;" parent="1" source="ehxNiageHxBLJbwBgZLJ-82" target="ehxNiageHxBLJbwBgZLJ-2" edge="1">
          <mxGeometry relative="1" as="geometry">
            <mxPoint x="520" y="292" as="sourcePoint" />
            <mxPoint x="508" y="171" as="targetPoint" />
          </mxGeometry>
        </mxCell>
        <mxCell id="ehxNiageHxBLJbwBgZLJ-85" value="1" style="resizable=0;html=1;whiteSpace=wrap;align=right;verticalAlign=bottom;" parent="ehxNiageHxBLJbwBgZLJ-84" connectable="0" vertex="1">
          <mxGeometry x="1" relative="1" as="geometry">
            <mxPoint x="13" y="27" as="offset" />
          </mxGeometry>
        </mxCell>
        <mxCell id="ehxNiageHxBLJbwBgZLJ-86" value="1" style="resizable=0;html=1;whiteSpace=wrap;align=right;verticalAlign=bottom;" parent="1" connectable="0" vertex="1">
          <mxGeometry x="192.54153966837248" y="201.9260169410004" as="geometry" />
        </mxCell>
        <mxCell id="ehxNiageHxBLJbwBgZLJ-87" value="work" style="shape=rhombus;perimeter=rhombusPerimeter;whiteSpace=wrap;html=1;align=center;" parent="1" vertex="1">
          <mxGeometry x="575" y="230" width="120" height="60" as="geometry" />
        </mxCell>
        <mxCell id="ehxNiageHxBLJbwBgZLJ-88" value="hiring_date" style="ellipse;whiteSpace=wrap;html=1;align=center;" parent="1" vertex="1">
          <mxGeometry x="377" y="89" width="100" height="40" as="geometry" />
        </mxCell>
        <mxCell id="ehxNiageHxBLJbwBgZLJ-89" value="" style="endArrow=none;html=1;rounded=0;exitX=0.5;exitY=1;exitDx=0;exitDy=0;entryX=0.5;entryY=0;entryDx=0;entryDy=0;" parent="1" source="ehxNiageHxBLJbwBgZLJ-88" target="ehxNiageHxBLJbwBgZLJ-82" edge="1">
          <mxGeometry relative="1" as="geometry">
            <mxPoint x="214" y="186" as="sourcePoint" />
            <mxPoint x="176" y="199" as="targetPoint" />
          </mxGeometry>
        </mxCell>
        <mxCell id="ehxNiageHxBLJbwBgZLJ-90" value="" style="endArrow=none;html=1;rounded=0;exitX=0.82;exitY=1;exitDx=0;exitDy=0;entryX=0.5;entryY=0;entryDx=0;entryDy=0;exitPerimeter=0;" parent="1" source="ehxNiageHxBLJbwBgZLJ-2" target="ehxNiageHxBLJbwBgZLJ-87" edge="1">
          <mxGeometry relative="1" as="geometry">
            <mxPoint x="571" y="283" as="sourcePoint" />
            <mxPoint x="407" y="271" as="targetPoint" />
          </mxGeometry>
        </mxCell>
        <mxCell id="ehxNiageHxBLJbwBgZLJ-91" value="" style="endArrow=none;html=1;rounded=0;exitX=1;exitY=1;exitDx=0;exitDy=0;entryX=0;entryY=0.5;entryDx=0;entryDy=0;" parent="1" source="ehxNiageHxBLJbwBgZLJ-1" target="ehxNiageHxBLJbwBgZLJ-87" edge="1">
          <mxGeometry relative="1" as="geometry">
            <mxPoint x="563" y="175" as="sourcePoint" />
            <mxPoint x="440" y="319" as="targetPoint" />
            <Array as="points">
              <mxPoint x="250" y="279" />
            </Array>
          </mxGeometry>
        </mxCell>
        <mxCell id="ehxNiageHxBLJbwBgZLJ-92" value="" style="shape=link;html=1;rounded=0;exitX=1;exitY=0.5;exitDx=0;exitDy=0;entryX=0.182;entryY=1.1;entryDx=0;entryDy=0;entryPerimeter=0;" parent="1" source="ehxNiageHxBLJbwBgZLJ-74" target="ehxNiageHxBLJbwBgZLJ-80" edge="1">
          <mxGeometry relative="1" as="geometry">
            <mxPoint x="135" y="359" as="sourcePoint" />
            <mxPoint x="123" y="238" as="targetPoint" />
          </mxGeometry>
        </mxCell>
        <mxCell id="ehxNiageHxBLJbwBgZLJ-80" value="employee" style="text;strokeColor=none;fillColor=none;spacingLeft=4;spacingRight=4;overflow=hidden;rotatable=0;points=[[0,0.5],[1,0.5]];portConstraint=eastwest;fontSize=12;whiteSpace=wrap;html=1;" parent="1" vertex="1">
          <mxGeometry x="65" y="274" width="66" height="30" as="geometry" />
        </mxCell>
        <mxCell id="ehxNiageHxBLJbwBgZLJ-94" value="" style="endArrow=none;html=1;rounded=0;entryX=0.25;entryY=1;entryDx=0;entryDy=0;exitX=0.5;exitY=0;exitDx=0;exitDy=0;" parent="1" source="ehxNiageHxBLJbwBgZLJ-74" target="ehxNiageHxBLJbwBgZLJ-79" edge="1">
          <mxGeometry relative="1" as="geometry">
            <mxPoint x="15" y="359" as="sourcePoint" />
            <mxPoint x="84" y="237" as="targetPoint" />
          </mxGeometry>
        </mxCell>
        <mxCell id="ehxNiageHxBLJbwBgZLJ-79" value="supervisor" style="text;strokeColor=none;fillColor=none;spacingLeft=4;spacingRight=4;overflow=hidden;rotatable=0;points=[[0,0.5],[1,0.5]];portConstraint=eastwest;fontSize=12;whiteSpace=wrap;html=1;" parent="1" vertex="1">
          <mxGeometry x="-16" y="269" width="66" height="30" as="geometry" />
        </mxCell>
        <mxCell id="ehxNiageHxBLJbwBgZLJ-96" value="1" style="resizable=0;html=1;whiteSpace=wrap;align=right;verticalAlign=bottom;" parent="1" connectable="0" vertex="1">
          <mxGeometry x="231.0015396683725" y="204.9960169410004" as="geometry">
            <mxPoint x="359" y="-42" as="offset" />
          </mxGeometry>
        </mxCell>
        <mxCell id="ehxNiageHxBLJbwBgZLJ-97" value="N" style="resizable=0;html=1;whiteSpace=wrap;align=right;verticalAlign=bottom;" parent="1" connectable="0" vertex="1">
          <mxGeometry x="159.98976131366317" y="263.1975775118085" as="geometry">
            <mxPoint x="28" y="-16" as="offset" />
          </mxGeometry>
        </mxCell>
        <mxCell id="ehxNiageHxBLJbwBgZLJ-98" value="recorded" style="shape=rhombus;perimeter=rhombusPerimeter;whiteSpace=wrap;html=1;align=center;" parent="1" vertex="1">
          <mxGeometry x="400" y="360" width="120" height="60" as="geometry" />
        </mxCell>
        <mxCell id="ehxNiageHxBLJbwBgZLJ-99" value="" style="endArrow=none;html=1;rounded=0;exitX=0.836;exitY=1.021;exitDx=0;exitDy=0;entryX=0;entryY=0.5;entryDx=0;entryDy=0;exitPerimeter=0;" parent="1" source="ehxNiageHxBLJbwBgZLJ-1" target="ehxNiageHxBLJbwBgZLJ-98" edge="1">
          <mxGeometry relative="1" as="geometry">
            <mxPoint x="136" y="299" as="sourcePoint" />
            <mxPoint x="470" y="381" as="targetPoint" />
            <Array as="points">
              <mxPoint x="230" y="360" />
            </Array>
          </mxGeometry>
        </mxCell>
        <mxCell id="ehxNiageHxBLJbwBgZLJ-100" value="1" style="resizable=0;html=1;whiteSpace=wrap;align=right;verticalAlign=bottom;" parent="1" connectable="0" vertex="1">
          <mxGeometry x="176.54153966837248" y="256.9260169410004" as="geometry">
            <mxPoint x="4" y="14" as="offset" />
          </mxGeometry>
        </mxCell>
        <mxCell id="ehxNiageHxBLJbwBgZLJ-101" value="1" style="resizable=0;html=1;whiteSpace=wrap;align=right;verticalAlign=bottom;" parent="1" connectable="0" vertex="1">
          <mxGeometry x="212.54153966837248" y="241.9260169410004" as="geometry" />
        </mxCell>
        <mxCell id="ehxNiageHxBLJbwBgZLJ-102" value="" style="endArrow=none;html=1;rounded=0;entryX=1;entryY=0.5;entryDx=0;entryDy=0;exitX=0;exitY=0.5;exitDx=0;exitDy=0;" parent="1" source="ehxNiageHxBLJbwBgZLJ-3" target="ehxNiageHxBLJbwBgZLJ-98" edge="1">
          <mxGeometry relative="1" as="geometry">
            <mxPoint x="563" y="231" as="sourcePoint" />
            <mxPoint x="551" y="320" as="targetPoint" />
          </mxGeometry>
        </mxCell>
        <mxCell id="ehxNiageHxBLJbwBgZLJ-104" value="N" style="resizable=0;html=1;whiteSpace=wrap;align=right;verticalAlign=bottom;" parent="1" connectable="0" vertex="1">
          <mxGeometry x="111.00287067379294" y="356.99896188907667" as="geometry">
            <mxPoint x="629" y="42" as="offset" />
          </mxGeometry>
        </mxCell>
        <mxCell id="ehxNiageHxBLJbwBgZLJ-106" value="" style="endArrow=none;html=1;rounded=0;entryX=0.889;entryY=0.413;entryDx=0;entryDy=0;entryPerimeter=0;" parent="1" target="ehxNiageHxBLJbwBgZLJ-98" edge="1">
          <mxGeometry relative="1" as="geometry">
            <mxPoint x="720" y="345" as="sourcePoint" />
            <mxPoint x="516" y="425" as="targetPoint" />
          </mxGeometry>
        </mxCell>
        <mxCell id="ehxNiageHxBLJbwBgZLJ-107" value="borrow" style="shape=rhombus;perimeter=rhombusPerimeter;whiteSpace=wrap;html=1;align=center;" parent="1" vertex="1">
          <mxGeometry x="550" y="420" width="120" height="60" as="geometry" />
        </mxCell>
        <mxCell id="ehxNiageHxBLJbwBgZLJ-108" value="" style="endArrow=none;html=1;rounded=0;entryX=0.5;entryY=0;entryDx=0;entryDy=0;exitX=0.25;exitY=1;exitDx=0;exitDy=0;" parent="1" source="ehxNiageHxBLJbwBgZLJ-3" target="ehxNiageHxBLJbwBgZLJ-107" edge="1">
          <mxGeometry relative="1" as="geometry">
            <mxPoint x="796" y="355" as="sourcePoint" />
            <mxPoint x="526" y="435" as="targetPoint" />
          </mxGeometry>
        </mxCell>
        <mxCell id="ehxNiageHxBLJbwBgZLJ-109" value="" style="endArrow=none;html=1;rounded=0;exitX=0.5;exitY=0;exitDx=0;exitDy=0;entryX=1;entryY=0.5;entryDx=0;entryDy=0;" parent="1" source="ehxNiageHxBLJbwBgZLJ-4" target="ehxNiageHxBLJbwBgZLJ-107" edge="1">
          <mxGeometry relative="1" as="geometry">
            <mxPoint x="825" y="380" as="sourcePoint" />
            <mxPoint x="740" y="490" as="targetPoint" />
          </mxGeometry>
        </mxCell>
        <mxCell id="ehxNiageHxBLJbwBgZLJ-110" value="" style="endArrow=none;html=1;rounded=0;entryX=0;entryY=0.5;entryDx=0;entryDy=0;" parent="1" target="ehxNiageHxBLJbwBgZLJ-107" edge="1">
          <mxGeometry relative="1" as="geometry">
            <mxPoint x="140" y="240" as="sourcePoint" />
            <mxPoint x="383" y="428" as="targetPoint" />
            <Array as="points">
              <mxPoint x="250" y="480" />
            </Array>
          </mxGeometry>
        </mxCell>
        <mxCell id="ehxNiageHxBLJbwBgZLJ-111" value="1" style="resizable=0;html=1;whiteSpace=wrap;align=right;verticalAlign=bottom;" parent="1" connectable="0" vertex="1">
          <mxGeometry x="150.54153966837248" y="274.9260169410004" as="geometry">
            <mxPoint x="4" y="14" as="offset" />
          </mxGeometry>
        </mxCell>
        <mxCell id="ehxNiageHxBLJbwBgZLJ-112" value="N" style="resizable=0;html=1;whiteSpace=wrap;align=right;verticalAlign=bottom;" parent="1" connectable="0" vertex="1">
          <mxGeometry x="76.00287067379296" y="298.99896188907667" as="geometry">
            <mxPoint x="629" y="42" as="offset" />
          </mxGeometry>
        </mxCell>
        <mxCell id="ehxNiageHxBLJbwBgZLJ-113" value="N" style="resizable=0;html=1;whiteSpace=wrap;align=right;verticalAlign=bottom;" parent="1" connectable="0" vertex="1">
          <mxGeometry x="176.54287067379295" y="548.9989618890767" as="geometry">
            <mxPoint x="616" y="-9" as="offset" />
          </mxGeometry>
        </mxCell>
        <mxCell id="ehxNiageHxBLJbwBgZLJ-114" value="date_borrowed" style="ellipse;whiteSpace=wrap;html=1;align=center;" parent="1" vertex="1">
          <mxGeometry x="425" y="471" width="114" height="40" as="geometry" />
        </mxCell>
        <mxCell id="ehxNiageHxBLJbwBgZLJ-115" value="due_date" style="ellipse;whiteSpace=wrap;html=1;align=center;" parent="1" vertex="1">
          <mxGeometry x="481" y="531" width="114" height="40" as="geometry" />
        </mxCell>
        <mxCell id="ehxNiageHxBLJbwBgZLJ-116" value="price" style="ellipse;whiteSpace=wrap;html=1;align=center;" parent="1" vertex="1">
          <mxGeometry x="604" y="520" width="114" height="40" as="geometry" />
        </mxCell>
        <mxCell id="ehxNiageHxBLJbwBgZLJ-118" value="" style="endArrow=none;html=1;rounded=0;exitX=0.5;exitY=0;exitDx=0;exitDy=0;entryX=0.5;entryY=1;entryDx=0;entryDy=0;" parent="1" source="ehxNiageHxBLJbwBgZLJ-116" target="ehxNiageHxBLJbwBgZLJ-107" edge="1">
          <mxGeometry relative="1" as="geometry">
            <mxPoint x="750" y="560" as="sourcePoint" />
            <mxPoint x="674" y="509" as="targetPoint" />
          </mxGeometry>
        </mxCell>
        <mxCell id="ehxNiageHxBLJbwBgZLJ-119" value="" style="endArrow=none;html=1;rounded=0;exitX=0.5;exitY=0;exitDx=0;exitDy=0;entryX=0;entryY=1;entryDx=0;entryDy=0;" parent="1" source="ehxNiageHxBLJbwBgZLJ-115" target="ehxNiageHxBLJbwBgZLJ-107" edge="1">
          <mxGeometry relative="1" as="geometry">
            <mxPoint x="657" y="530" as="sourcePoint" />
            <mxPoint x="674" y="509" as="targetPoint" />
          </mxGeometry>
        </mxCell>
        <mxCell id="ehxNiageHxBLJbwBgZLJ-120" value="" style="endArrow=none;html=1;rounded=0;exitX=0.982;exitY=0.315;exitDx=0;exitDy=0;entryX=0.15;entryY=0.677;entryDx=0;entryDy=0;entryPerimeter=0;exitPerimeter=0;" parent="1" source="ehxNiageHxBLJbwBgZLJ-114" target="ehxNiageHxBLJbwBgZLJ-107" edge="1">
          <mxGeometry relative="1" as="geometry">
            <mxPoint x="554" y="560" as="sourcePoint" />
            <mxPoint x="644" y="494" as="targetPoint" />
          </mxGeometry>
        </mxCell>
        <mxCell id="ehxNiageHxBLJbwBgZLJ-121" value="own" style="shape=rhombus;perimeter=rhombusPerimeter;whiteSpace=wrap;html=1;align=center;" parent="1" vertex="1">
          <mxGeometry x="601" y="670" width="120" height="60" as="geometry" />
        </mxCell>
        <mxCell id="ehxNiageHxBLJbwBgZLJ-123" value="" style="endArrow=none;html=1;rounded=0;exitX=0;exitY=1;exitDx=0;exitDy=0;entryX=1;entryY=0;entryDx=0;entryDy=0;" parent="1" source="ehxNiageHxBLJbwBgZLJ-4" target="ehxNiageHxBLJbwBgZLJ-121" edge="1">
          <mxGeometry relative="1" as="geometry">
            <mxPoint x="820" y="570" as="sourcePoint" />
            <mxPoint x="734" y="479" as="targetPoint" />
          </mxGeometry>
        </mxCell>
        <mxCell id="ehxNiageHxBLJbwBgZLJ-124" value="" style="endArrow=none;html=1;rounded=0;exitX=1;exitY=0.5;exitDx=0;exitDy=0;entryX=0.067;entryY=0.517;entryDx=0;entryDy=0;entryPerimeter=0;" parent="1" source="ehxNiageHxBLJbwBgZLJ-5" target="ehxNiageHxBLJbwBgZLJ-121" edge="1">
          <mxGeometry relative="1" as="geometry">
            <mxPoint x="770" y="610" as="sourcePoint" />
            <mxPoint x="701" y="695" as="targetPoint" />
          </mxGeometry>
        </mxCell>
        <mxCell id="ehxNiageHxBLJbwBgZLJ-125" value="N" style="resizable=0;html=1;whiteSpace=wrap;align=right;verticalAlign=bottom;" parent="1" connectable="0" vertex="1">
          <mxGeometry x="126.00287067379296" y="580.9989618890767" as="geometry">
            <mxPoint x="616" y="-9" as="offset" />
          </mxGeometry>
        </mxCell>
        <mxCell id="ehxNiageHxBLJbwBgZLJ-127" value="N" style="resizable=0;html=1;whiteSpace=wrap;align=right;verticalAlign=bottom;" parent="1" connectable="0" vertex="1">
          <mxGeometry x="212.54287067379295" y="559.9989618890767" as="geometry">
            <mxPoint x="616" y="-9" as="offset" />
          </mxGeometry>
        </mxCell>
        <mxCell id="ehxNiageHxBLJbwBgZLJ-128" value="publish" style="shape=rhombus;perimeter=rhombusPerimeter;whiteSpace=wrap;html=1;align=center;" parent="1" vertex="1">
          <mxGeometry x="300" y="570" width="120" height="60" as="geometry" />
        </mxCell>
        <mxCell id="ehxNiageHxBLJbwBgZLJ-129" value="" style="endArrow=none;html=1;rounded=0;exitX=0;exitY=0.5;exitDx=0;exitDy=0;entryX=1;entryY=1;entryDx=0;entryDy=0;" parent="1" source="ehxNiageHxBLJbwBgZLJ-4" target="ehxNiageHxBLJbwBgZLJ-128" edge="1">
          <mxGeometry relative="1" as="geometry">
            <mxPoint x="749" y="585" as="sourcePoint" />
            <mxPoint x="680" y="670" as="targetPoint" />
            <Array as="points">
              <mxPoint x="570" y="630" />
            </Array>
          </mxGeometry>
        </mxCell>
        <mxCell id="ehxNiageHxBLJbwBgZLJ-131" value="" style="endArrow=none;html=1;rounded=0;exitX=0;exitY=0;exitDx=0;exitDy=0;entryX=1;entryY=0.5;entryDx=0;entryDy=0;" parent="1" source="ehxNiageHxBLJbwBgZLJ-128" target="ehxNiageHxBLJbwBgZLJ-6" edge="1">
          <mxGeometry relative="1" as="geometry">
            <mxPoint x="180" y="593" as="sourcePoint" />
            <mxPoint x="145" y="540" as="targetPoint" />
            <Array as="points" />
          </mxGeometry>
        </mxCell>
        <mxCell id="ehxNiageHxBLJbwBgZLJ-132" value="1" style="resizable=0;html=1;whiteSpace=wrap;align=right;verticalAlign=bottom;" parent="1" connectable="0" vertex="1">
          <mxGeometry x="176.54153966837248" y="530.9960169410003" as="geometry">
            <mxPoint x="4" y="14" as="offset" />
          </mxGeometry>
        </mxCell>
        <mxCell id="ehxNiageHxBLJbwBgZLJ-133" value="N" style="resizable=0;html=1;whiteSpace=wrap;align=right;verticalAlign=bottom;" parent="1" connectable="0" vertex="1">
          <mxGeometry x="-109.99712932620704" y="700.9989618890767" as="geometry">
            <mxPoint x="616" y="-9" as="offset" />
          </mxGeometry>
        </mxCell>
        <mxCell id="ehxNiageHxBLJbwBgZLJ-134" value="" style="endArrow=none;html=1;rounded=0;exitX=0;exitY=0.25;exitDx=0;exitDy=0;" parent="1" source="ehxNiageHxBLJbwBgZLJ-4" edge="1">
          <mxGeometry relative="1" as="geometry">
            <mxPoint x="769" y="571" as="sourcePoint" />
            <mxPoint x="410" y="606" as="targetPoint" />
            <Array as="points">
              <mxPoint x="579" y="621" />
            </Array>
          </mxGeometry>
        </mxCell>
        <mxCell id="ehxNiageHxBLJbwBgZLJ-135" value="categories" style="whiteSpace=wrap;html=1;align=center;" parent="1" vertex="1">
          <mxGeometry x="915" y="730" width="98" height="40" as="geometry" />
        </mxCell>
        <mxCell id="ehxNiageHxBLJbwBgZLJ-137" value="id" style="ellipse;whiteSpace=wrap;html=1;align=center;fontStyle=4;" parent="1" vertex="1">
          <mxGeometry x="955" y="803" width="100" height="40" as="geometry" />
        </mxCell>
        <mxCell id="ehxNiageHxBLJbwBgZLJ-138" value="cat_name" style="ellipse;whiteSpace=wrap;html=1;align=center;" parent="1" vertex="1">
          <mxGeometry x="795" y="803" width="150" height="40" as="geometry" />
        </mxCell>
        <mxCell id="ehxNiageHxBLJbwBgZLJ-139" value="" style="endArrow=none;html=1;rounded=0;exitX=0.607;exitY=0.05;exitDx=0;exitDy=0;entryX=0.25;entryY=1;entryDx=0;entryDy=0;exitPerimeter=0;" parent="1" source="ehxNiageHxBLJbwBgZLJ-138" target="ehxNiageHxBLJbwBgZLJ-135" edge="1">
          <mxGeometry relative="1" as="geometry">
            <mxPoint x="820" y="610" as="sourcePoint" />
            <mxPoint x="845" y="650" as="targetPoint" />
            <Array as="points" />
          </mxGeometry>
        </mxCell>
        <mxCell id="ehxNiageHxBLJbwBgZLJ-140" value="" style="endArrow=none;html=1;rounded=0;exitX=0.5;exitY=0;exitDx=0;exitDy=0;entryX=0.633;entryY=0.975;entryDx=0;entryDy=0;entryPerimeter=0;" parent="1" source="ehxNiageHxBLJbwBgZLJ-137" target="ehxNiageHxBLJbwBgZLJ-135" edge="1">
          <mxGeometry relative="1" as="geometry">
            <mxPoint x="896" y="815" as="sourcePoint" />
            <mxPoint x="950" y="780" as="targetPoint" />
            <Array as="points" />
          </mxGeometry>
        </mxCell>
        <mxCell id="ehxNiageHxBLJbwBgZLJ-141" value="has" style="shape=rhombus;perimeter=rhombusPerimeter;whiteSpace=wrap;html=1;align=center;" parent="1" vertex="1">
          <mxGeometry x="790" y="641" width="120" height="60" as="geometry" />
        </mxCell>
        <mxCell id="ehxNiageHxBLJbwBgZLJ-142" value="" style="endArrow=none;html=1;rounded=0;exitX=0.5;exitY=1;exitDx=0;exitDy=0;entryX=0.333;entryY=0.15;entryDx=0;entryDy=0;entryPerimeter=0;" parent="1" source="ehxNiageHxBLJbwBgZLJ-4" target="ehxNiageHxBLJbwBgZLJ-141" edge="1">
          <mxGeometry relative="1" as="geometry">
            <mxPoint x="770" y="610" as="sourcePoint" />
            <mxPoint x="701" y="695" as="targetPoint" />
          </mxGeometry>
        </mxCell>
        <mxCell id="ehxNiageHxBLJbwBgZLJ-143" value="" style="endArrow=none;html=1;rounded=0;exitX=0;exitY=0;exitDx=0;exitDy=0;entryX=0.7;entryY=0.833;entryDx=0;entryDy=0;entryPerimeter=0;" parent="1" source="ehxNiageHxBLJbwBgZLJ-135" target="ehxNiageHxBLJbwBgZLJ-141" edge="1">
          <mxGeometry relative="1" as="geometry">
            <mxPoint x="820" y="610" as="sourcePoint" />
            <mxPoint x="840" y="660" as="targetPoint" />
          </mxGeometry>
        </mxCell>
        <mxCell id="ehxNiageHxBLJbwBgZLJ-144" value="" style="endArrow=none;html=1;rounded=0;entryX=0.333;entryY=0.15;entryDx=0;entryDy=0;entryPerimeter=0;exitX=0.62;exitY=1.05;exitDx=0;exitDy=0;exitPerimeter=0;" parent="1" source="ehxNiageHxBLJbwBgZLJ-4" edge="1">
          <mxGeometry relative="1" as="geometry">
            <mxPoint x="820" y="599" as="sourcePoint" />
            <mxPoint x="836" y="649" as="targetPoint" />
          </mxGeometry>
        </mxCell>
        <mxCell id="ehxNiageHxBLJbwBgZLJ-145" value="N" style="resizable=0;html=1;whiteSpace=wrap;align=right;verticalAlign=bottom;" parent="1" connectable="0" vertex="1">
          <mxGeometry x="186.00287067379296" y="629.9989618890767" as="geometry">
            <mxPoint x="616" y="-9" as="offset" />
          </mxGeometry>
        </mxCell>
        <mxCell id="ehxNiageHxBLJbwBgZLJ-146" value="1" style="resizable=0;html=1;whiteSpace=wrap;align=right;verticalAlign=bottom;" parent="1" connectable="0" vertex="1">
          <mxGeometry x="300.0028706737929" y="729.9989618890767" as="geometry">
            <mxPoint x="616" y="-9" as="offset" />
          </mxGeometry>
        </mxCell>
        <mxCell id="ehxNiageHxBLJbwBgZLJ-147" value="shelfs&lt;span style=&quot;white-space: pre;&quot;&gt;&#x9;&lt;/span&gt;" style="whiteSpace=wrap;html=1;align=center;" parent="1" vertex="1">
          <mxGeometry x="980" y="180" width="100" height="40" as="geometry" />
        </mxCell>
        <mxCell id="ehxNiageHxBLJbwBgZLJ-148" value="" style="endArrow=none;html=1;rounded=0;exitX=1;exitY=0;exitDx=0;exitDy=0;entryX=0.5;entryY=1;entryDx=0;entryDy=0;" parent="1" source="ehxNiageHxBLJbwBgZLJ-147" target="ehxNiageHxBLJbwBgZLJ-149" edge="1">
          <mxGeometry relative="1" as="geometry">
            <mxPoint x="811" y="437" as="sourcePoint" />
            <mxPoint x="1010" y="227" as="targetPoint" />
            <Array as="points" />
          </mxGeometry>
        </mxCell>
        <mxCell id="ehxNiageHxBLJbwBgZLJ-149" value="code" style="ellipse;whiteSpace=wrap;html=1;align=center;fontStyle=4;" parent="1" vertex="1">
          <mxGeometry x="1070" y="113" width="100" height="40" as="geometry" />
        </mxCell>
        <mxCell id="ehxNiageHxBLJbwBgZLJ-150" value="assigned_to" style="shape=rhombus;perimeter=rhombusPerimeter;whiteSpace=wrap;html=1;align=center;" parent="1" vertex="1">
          <mxGeometry x="1050" y="340" width="120" height="60" as="geometry" />
        </mxCell>
        <mxCell id="ehxNiageHxBLJbwBgZLJ-154" value="" style="endArrow=none;html=1;rounded=0;exitX=0.75;exitY=0;exitDx=0;exitDy=0;entryX=0;entryY=0.5;entryDx=0;entryDy=0;" parent="1" source="ehxNiageHxBLJbwBgZLJ-4" target="ehxNiageHxBLJbwBgZLJ-150" edge="1">
          <mxGeometry relative="1" as="geometry">
            <mxPoint x="760" y="610" as="sourcePoint" />
            <mxPoint x="701" y="695" as="targetPoint" />
          </mxGeometry>
        </mxCell>
        <mxCell id="ehxNiageHxBLJbwBgZLJ-155" value="" style="endArrow=none;html=1;rounded=0;exitX=0.608;exitY=0.972;exitDx=0;exitDy=0;entryX=0.5;entryY=0;entryDx=0;entryDy=0;exitPerimeter=0;" parent="1" source="ehxNiageHxBLJbwBgZLJ-147" target="ehxNiageHxBLJbwBgZLJ-150" edge="1">
          <mxGeometry relative="1" as="geometry">
            <mxPoint x="785" y="610" as="sourcePoint" />
            <mxPoint x="770" y="721" as="targetPoint" />
          </mxGeometry>
        </mxCell>
        <mxCell id="ehxNiageHxBLJbwBgZLJ-156" value="N" style="resizable=0;html=1;whiteSpace=wrap;align=right;verticalAlign=bottom;" parent="1" connectable="0" vertex="1">
          <mxGeometry x="125.00287067379296" y="619.9989618890767" as="geometry">
            <mxPoint x="616" y="-9" as="offset" />
          </mxGeometry>
        </mxCell>
        <mxCell id="ehxNiageHxBLJbwBgZLJ-157" value="" style="endArrow=none;html=1;rounded=0;exitX=0.861;exitY=0.031;exitDx=0;exitDy=0;entryX=0.08;entryY=0.55;entryDx=0;entryDy=0;exitPerimeter=0;entryPerimeter=0;" parent="1" source="ehxNiageHxBLJbwBgZLJ-4" target="ehxNiageHxBLJbwBgZLJ-150" edge="1">
          <mxGeometry relative="1" as="geometry">
            <mxPoint x="781" y="601" as="sourcePoint" />
            <mxPoint x="766" y="712" as="targetPoint" />
          </mxGeometry>
        </mxCell>
        <mxCell id="ehxNiageHxBLJbwBgZLJ-158" value="1" style="resizable=0;html=1;whiteSpace=wrap;align=right;verticalAlign=bottom;" parent="1" connectable="0" vertex="1">
          <mxGeometry x="420.0028706737929" y="249.99896188907667" as="geometry">
            <mxPoint x="616" y="-9" as="offset" />
          </mxGeometry>
        </mxCell>
        <mxCell id="ehxNiageHxBLJbwBgZLJ-159" value="work" style="shape=rhombus;perimeter=rhombusPerimeter;whiteSpace=wrap;html=1;align=center;" parent="1" vertex="1">
          <mxGeometry x="790" y="139" width="120" height="60" as="geometry" />
        </mxCell>
        <mxCell id="ehxNiageHxBLJbwBgZLJ-160" value="" style="endArrow=none;html=1;rounded=0;exitX=0;exitY=0.5;exitDx=0;exitDy=0;entryX=1;entryY=1;entryDx=0;entryDy=0;" parent="1" source="ehxNiageHxBLJbwBgZLJ-147" target="ehxNiageHxBLJbwBgZLJ-159" edge="1">
          <mxGeometry relative="1" as="geometry">
            <mxPoint x="1051" y="229" as="sourcePoint" />
            <mxPoint x="1120" y="350" as="targetPoint" />
          </mxGeometry>
        </mxCell>
        <mxCell id="ehxNiageHxBLJbwBgZLJ-161" value="" style="endArrow=none;html=1;rounded=0;entryX=0.678;entryY=0.861;entryDx=0;entryDy=0;entryPerimeter=0;exitX=0;exitY=0.75;exitDx=0;exitDy=0;" parent="1" source="ehxNiageHxBLJbwBgZLJ-147" target="ehxNiageHxBLJbwBgZLJ-159" edge="1">
          <mxGeometry relative="1" as="geometry">
            <mxPoint x="970" y="210" as="sourcePoint" />
            <mxPoint x="883" y="192" as="targetPoint" />
          </mxGeometry>
        </mxCell>
        <mxCell id="ehxNiageHxBLJbwBgZLJ-162" value="" style="endArrow=none;html=1;rounded=0;exitX=0;exitY=0.5;exitDx=0;exitDy=0;entryX=1;entryY=0.5;entryDx=0;entryDy=0;" parent="1" source="ehxNiageHxBLJbwBgZLJ-159" target="ehxNiageHxBLJbwBgZLJ-2" edge="1">
          <mxGeometry relative="1" as="geometry">
            <mxPoint x="990" y="218" as="sourcePoint" />
            <mxPoint x="890" y="202" as="targetPoint" />
          </mxGeometry>
        </mxCell>
        <mxCell id="ehxNiageHxBLJbwBgZLJ-163" value="" style="endArrow=none;html=1;rounded=0;exitX=0.071;exitY=0.429;exitDx=0;exitDy=0;entryX=1;entryY=0.5;entryDx=0;entryDy=0;exitPerimeter=0;" parent="1" source="ehxNiageHxBLJbwBgZLJ-159" edge="1">
          <mxGeometry relative="1" as="geometry">
            <mxPoint x="787" y="163" as="sourcePoint" />
            <mxPoint x="692" y="129" as="targetPoint" />
          </mxGeometry>
        </mxCell>
        <mxCell id="ehxNiageHxBLJbwBgZLJ-164" value="N" style="resizable=0;html=1;whiteSpace=wrap;align=right;verticalAlign=bottom;" parent="1" connectable="0" vertex="1">
          <mxGeometry x="340.0028706737929" y="148.99896188907667" as="geometry">
            <mxPoint x="629" y="42" as="offset" />
          </mxGeometry>
        </mxCell>
        <mxCell id="ehxNiageHxBLJbwBgZLJ-165" value="1" style="resizable=0;html=1;whiteSpace=wrap;align=right;verticalAlign=bottom;" parent="1" connectable="0" vertex="1">
          <mxGeometry x="670.5835473903148" y="205.08112713175706" as="geometry">
            <mxPoint x="39" y="-75" as="offset" />
          </mxGeometry>
        </mxCell>
      </root>
    </mxGraphModel>
  </diagram>
</mxfile>
